<svg xmlns="http://www.w3.org/2000/svg" xmlns:xlink="http://www.w3.org/1999/xlink" fill="none" version="1.1" width="23.29159927368164" height="21.29166603088379" viewBox="0 0 23.29159927368164 21.29166603088379"><g><path d="M12.522631,3.2083333L12.522631,0.875C12.522631,0.39175078,12.130882,0,11.647637,0C11.164392,0,10.772644,0.39175078,10.772644,0.875L10.772644,3.2083333C10.772644,3.6915824,11.164392,4.083333,11.647637,4.083333C12.130882,4.083333,12.522631,3.6915824,12.522631,3.2083333ZM16.721094,4.520833L17.887753,2.5001073C18.129375,2.0816011,18.664513,1.9382105,19.083015,2.1798351C19.501518,2.4214597,19.644909,2.9566014,19.403286,3.3751073L18.236628,5.395833C17.995005,5.8143392,17.459867,5.9577298,17.041365,5.7161055C16.622862,5.4744811,16.479471,4.9393392,16.721094,4.520833ZM5.4034982,2.5001166L6.5701919,4.5209045C6.8118143,4.9394102,6.6684246,5.4745522,6.2499218,5.7161765C5.8314195,5.9578009,5.2962813,5.8144102,5.0546589,5.3959045L3.8879654,3.3751166C3.6463428,2.9566107,3.7897325,2.4214692,4.2082353,2.1798446C4.6267381,1.9382199,5.1618757,2.0816107,5.4034982,2.5001166ZM4.6465507,18.53409C4.6465507,18.768393,4.8364892,18.958332,5.0707898,18.958332L18.222206,18.958332C18.456507,18.958332,18.646444,18.768393,18.646444,18.53409L18.646444,11.958333C18.646444,8.0923395,15.512463,4.958333,11.646498,4.958333C7.7805333,4.958333,4.6465507,8.0923395,4.6465507,11.958333L4.6465507,18.53409ZM6.3965373,17.208332L6.3965364,11.958333Q6.3965368,9.7837114,7.9342151,8.2460222Q9.4718924,6.708333,11.646498,6.7083321Q13.821104,6.7083325,15.358781,8.2460222Q16.896458,9.7837105,16.896458,11.958333L16.896458,17.208332L6.3965373,17.208332ZM1.3125052,7.1171918L3.3332775,8.2838945C3.7517803,8.5255184,3.89517,9.0606604,3.6535473,9.479166C3.4119244,9.8976727,2.8767869,10.041062,2.4582841,9.7994385L0.43751168,8.6327362C0.019008864,8.3911123,-0.12438076,7.8559699,0.117242,7.4374642C0.35886475,7.0189581,0.89400232,6.8755679,1.3125052,7.1171918ZM19.958151,8.2838945L21.978832,7.1172452C22.397333,6.8756213,22.932472,7.0190115,23.174095,7.4375176C23.415718,7.8560233,23.272327,8.3911657,22.853825,8.6327896L20.833145,9.7994385C20.414642,10.041062,19.879505,9.8976727,19.637882,9.479166C19.396257,9.0606604,19.53965,8.5255184,19.958151,8.2838945ZM21.854753,20.416666C21.854753,19.933416,21.463005,19.541666,20.979759,19.541666L2.3132353,19.541666C1.8299896,19.541666,1.4382418,19.933416,1.4382418,20.416666C1.4382418,20.899914,1.8299896,21.291666,2.3132353,21.291666L20.979759,21.291666C21.463005,21.291666,21.854753,20.899914,21.854753,20.416666Z" fill-rule="evenodd" fill="currentColor" fill-opacity="1"/></g></svg>